<svg id="visual" viewBox="0 0 900 300" width="900" height="300" xmlns="http://www.w3.org/2000/svg"
    xmlns:xlink="http://www.w3.org/1999/xlink" version="1.1">
    <rect x="0" y="0" width="900" height="300" fill="#008fff"></rect>
    <path
        d="M0 220L21.5 219.8C43 219.7 86 219.3 128.8 217C171.7 214.7 214.3 210.3 257.2 203.5C300 196.7 343 187.3 385.8 188.2C428.7 189 471.3 200 514.2 212.5C557 225 600 239 642.8 245C685.7 251 728.3 249 771.2 235.2C814 221.3 857 195.7 878.5 182.8L900 170L900 301L878.5 301C857 301 814 301 771.2 301C728.3 301 685.7 301 642.8 301C600 301 557 301 514.2 301C471.3 301 428.7 301 385.8 301C343 301 300 301 257.2 301C214.3 301 171.7 301 128.8 301C86 301 43 301 21.5 301L0 301Z"
        fill="#001122" stroke-linecap="round" stroke-linejoin="miter"></path>
</svg>