<svg id="visual" viewBox="0 0 900 100" width="900" height="100" xmlns="http://www.w3.org/2000/svg" xmlns:xlink="http://www.w3.org/1999/xlink" version="1.1"><rect x="0" y="0" width="900" height="100" fill="#001122"></rect><path d="M0 51L13.7 47.2C27.3 43.3 54.7 35.7 82 30.8C109.3 26 136.7 24 163.8 21.2C191 18.3 218 14.7 245.2 13.5C272.3 12.3 299.7 13.7 327 16.8C354.3 20 381.7 25 409 31.2C436.3 37.3 463.7 44.7 491 44.8C518.3 45 545.7 38 573 34.3C600.3 30.7 627.7 30.3 654.8 33.5C682 36.7 709 43.3 736.2 41.2C763.3 39 790.7 28 818 24.5C845.3 21 872.7 25 886.3 27L900 29L900 101L886.3 101C872.7 101 845.3 101 818 101C790.7 101 763.3 101 736.2 101C709 101 682 101 654.8 101C627.7 101 600.3 101 573 101C545.7 101 518.3 101 491 101C463.7 101 436.3 101 409 101C381.7 101 354.3 101 327 101C299.7 101 272.3 101 245.2 101C218 101 191 101 163.8 101C136.7 101 109.3 101 82 101C54.7 101 27.3 101 13.7 101L0 101Z" fill="#003d7a"></path><path d="M0 63L13.7 63.3C27.3 63.7 54.7 64.3 82 64.2C109.3 64 136.7 63 163.8 58.8C191 54.7 218 47.3 245.2 42.2C272.3 37 299.7 34 327 37.5C354.3 41 381.7 51 409 54.5C436.3 58 463.7 55 491 50.2C518.3 45.3 545.7 38.7 573 39.5C600.3 40.3 627.7 48.7 654.8 48.8C682 49 709 41 736.2 38.2C763.3 35.3 790.7 37.7 818 42.3C845.3 47 872.7 54 886.3 57.5L900 61L900 101L886.3 101C872.7 101 845.3 101 818 101C790.7 101 763.3 101 736.2 101C709 101 682 101 654.8 101C627.7 101 600.3 101 573 101C545.7 101 518.3 101 491 101C463.7 101 436.3 101 409 101C381.7 101 354.3 101 327 101C299.7 101 272.3 101 245.2 101C218 101 191 101 163.8 101C136.7 101 109.3 101 82 101C54.7 101 27.3 101 13.7 101L0 101Z" fill="#033268"></path><path d="M0 57L13.7 54.7C27.3 52.3 54.7 47.7 82 48.3C109.3 49 136.7 55 163.8 57C191 59 218 57 245.2 57.5C272.3 58 299.7 61 327 63.5C354.3 66 381.7 68 409 64.7C436.3 61.3 463.7 52.7 491 48.8C518.3 45 545.7 46 573 48C600.3 50 627.7 53 654.8 51.7C682 50.3 709 44.7 736.2 46C763.3 47.3 790.7 55.7 818 60.3C845.3 65 872.7 66 886.3 66.5L900 67L900 101L886.3 101C872.7 101 845.3 101 818 101C790.7 101 763.3 101 736.2 101C709 101 682 101 654.8 101C627.7 101 600.3 101 573 101C545.7 101 518.3 101 491 101C463.7 101 436.3 101 409 101C381.7 101 354.3 101 327 101C299.7 101 272.3 101 245.2 101C218 101 191 101 163.8 101C136.7 101 109.3 101 82 101C54.7 101 27.3 101 13.7 101L0 101Z" fill="#032857"></path><path d="M0 64L13.7 64C27.3 64 54.7 64 82 61.8C109.3 59.7 136.7 55.3 163.8 57.7C191 60 218 69 245.2 70C272.3 71 299.7 64 327 60C354.3 56 381.7 55 409 58.2C436.3 61.3 463.7 68.7 491 69.5C518.3 70.3 545.7 64.7 573 65.2C600.3 65.7 627.7 72.3 654.8 75C682 77.7 709 76.3 736.2 76.2C763.3 76 790.7 77 818 77.5C845.3 78 872.7 78 886.3 78L900 78L900 101L886.3 101C872.7 101 845.3 101 818 101C790.7 101 763.3 101 736.2 101C709 101 682 101 654.8 101C627.7 101 600.3 101 573 101C545.7 101 518.3 101 491 101C463.7 101 436.3 101 409 101C381.7 101 354.3 101 327 101C299.7 101 272.3 101 245.2 101C218 101 191 101 163.8 101C136.7 101 109.3 101 82 101C54.7 101 27.3 101 13.7 101L0 101Z" fill="#031e46"></path><path d="M0 71L13.7 70.3C27.3 69.7 54.7 68.3 82 67C109.3 65.7 136.7 64.3 163.8 67.7C191 71 218 79 245.2 82.3C272.3 85.7 299.7 84.3 327 83.7C354.3 83 381.7 83 409 82.3C436.3 81.7 463.7 80.3 491 80.3C518.3 80.3 545.7 81.7 573 82.3C600.3 83 627.7 83 654.8 80C682 77 709 71 736.2 68.7C763.3 66.3 790.7 67.7 818 70.5C845.3 73.3 872.7 77.7 886.3 79.8L900 82L900 101L886.3 101C872.7 101 845.3 101 818 101C790.7 101 763.3 101 736.2 101C709 101 682 101 654.8 101C627.7 101 600.3 101 573 101C545.7 101 518.3 101 491 101C463.7 101 436.3 101 409 101C381.7 101 354.3 101 327 101C299.7 101 272.3 101 245.2 101C218 101 191 101 163.8 101C136.7 101 109.3 101 82 101C54.7 101 27.3 101 13.7 101L0 101Z" fill="#021536"></path><path d="M0 77L13.7 79.7C27.3 82.3 54.7 87.7 82 87.7C109.3 87.7 136.7 82.3 163.8 79.8C191 77.3 218 77.7 245.2 80.5C272.3 83.3 299.7 88.7 327 90C354.3 91.3 381.7 88.7 409 86.7C436.3 84.7 463.7 83.3 491 84.5C518.3 85.7 545.7 89.3 573 89.7C600.3 90 627.7 87 654.8 85.2C682 83.3 709 82.7 736.2 83.7C763.3 84.7 790.7 87.3 818 88.7C845.3 90 872.7 90 886.3 90L900 90L900 101L886.3 101C872.7 101 845.3 101 818 101C790.7 101 763.3 101 736.2 101C709 101 682 101 654.8 101C627.7 101 600.3 101 573 101C545.7 101 518.3 101 491 101C463.7 101 436.3 101 409 101C381.7 101 354.3 101 327 101C299.7 101 272.3 101 245.2 101C218 101 191 101 163.8 101C136.7 101 109.3 101 82 101C54.7 101 27.3 101 13.7 101L0 101Z" fill="#000727"></path></svg>