<svg id="visual" viewBox="0 0 900 100" width="900" height="100" xmlns="http://www.w3.org/2000/svg" xmlns:xlink="http://www.w3.org/1999/xlink" version="1.1"><rect x="0" y="0" width="900" height="100" fill="#001122"></rect><path d="M0 11L13.7 16.5C27.3 22 54.7 33 82 39.5C109.3 46 136.7 48 163.8 44.5C191 41 218 32 245.2 31.7C272.3 31.3 299.7 39.7 327 44.5C354.3 49.3 381.7 50.7 409 51.2C436.3 51.7 463.7 51.3 491 45.2C518.3 39 545.7 27 573 26.5C600.3 26 627.7 37 654.8 38C682 39 709 30 736.2 30.3C763.3 30.7 790.7 40.3 818 45.5C845.3 50.7 872.7 51.3 886.3 51.7L900 52L900 101L886.3 101C872.7 101 845.3 101 818 101C790.7 101 763.3 101 736.2 101C709 101 682 101 654.8 101C627.7 101 600.3 101 573 101C545.7 101 518.3 101 491 101C463.7 101 436.3 101 409 101C381.7 101 354.3 101 327 101C299.7 101 272.3 101 245.2 101C218 101 191 101 163.8 101C136.7 101 109.3 101 82 101C54.7 101 27.3 101 13.7 101L0 101Z" fill="#003d7a"></path><path d="M0 53L13.7 49.2C27.3 45.3 54.7 37.7 82 35.3C109.3 33 136.7 36 163.8 40.7C191 45.3 218 51.7 245.2 53.7C272.3 55.7 299.7 53.3 327 49.2C354.3 45 381.7 39 409 37.8C436.3 36.7 463.7 40.3 491 43.5C518.3 46.7 545.7 49.3 573 51.3C600.3 53.3 627.7 54.7 654.8 51.7C682 48.7 709 41.3 736.2 41C763.3 40.7 790.7 47.3 818 49.8C845.3 52.3 872.7 50.7 886.3 49.8L900 49L900 101L886.3 101C872.7 101 845.3 101 818 101C790.7 101 763.3 101 736.2 101C709 101 682 101 654.8 101C627.7 101 600.3 101 573 101C545.7 101 518.3 101 491 101C463.7 101 436.3 101 409 101C381.7 101 354.3 101 327 101C299.7 101 272.3 101 245.2 101C218 101 191 101 163.8 101C136.7 101 109.3 101 82 101C54.7 101 27.3 101 13.7 101L0 101Z" fill="#033268"></path><path d="M0 49L13.7 47.8C27.3 46.7 54.7 44.3 82 47.2C109.3 50 136.7 58 163.8 58.2C191 58.3 218 50.7 245.2 49.3C272.3 48 299.7 53 327 53.5C354.3 54 381.7 50 409 50.3C436.3 50.7 463.7 55.3 491 56.5C518.3 57.7 545.7 55.3 573 52.2C600.3 49 627.7 45 654.8 44.8C682 44.7 709 48.3 736.2 50.8C763.3 53.3 790.7 54.7 818 58.3C845.3 62 872.7 68 886.3 71L900 74L900 101L886.3 101C872.7 101 845.3 101 818 101C790.7 101 763.3 101 736.2 101C709 101 682 101 654.8 101C627.7 101 600.3 101 573 101C545.7 101 518.3 101 491 101C463.7 101 436.3 101 409 101C381.7 101 354.3 101 327 101C299.7 101 272.3 101 245.2 101C218 101 191 101 163.8 101C136.7 101 109.3 101 82 101C54.7 101 27.3 101 13.7 101L0 101Z" fill="#032857"></path><path d="M0 79L13.7 79.2C27.3 79.3 54.7 79.7 82 77.5C109.3 75.3 136.7 70.7 163.8 67.2C191 63.7 218 61.3 245.2 61.2C272.3 61 299.7 63 327 62.3C354.3 61.7 381.7 58.3 409 59.3C436.3 60.3 463.7 65.7 491 66.8C518.3 68 545.7 65 573 65.5C600.3 66 627.7 70 654.8 70.8C682 71.7 709 69.3 736.2 66.3C763.3 63.3 790.7 59.7 818 57.7C845.3 55.7 872.7 55.3 886.3 55.2L900 55L900 101L886.3 101C872.7 101 845.3 101 818 101C790.7 101 763.3 101 736.2 101C709 101 682 101 654.8 101C627.7 101 600.3 101 573 101C545.7 101 518.3 101 491 101C463.7 101 436.3 101 409 101C381.7 101 354.3 101 327 101C299.7 101 272.3 101 245.2 101C218 101 191 101 163.8 101C136.7 101 109.3 101 82 101C54.7 101 27.3 101 13.7 101L0 101Z" fill="#031e46"></path><path d="M0 85L13.7 83.3C27.3 81.7 54.7 78.3 82 78.3C109.3 78.3 136.7 81.7 163.8 82.8C191 84 218 83 245.2 80.7C272.3 78.3 299.7 74.7 327 74C354.3 73.3 381.7 75.7 409 74.3C436.3 73 463.7 68 491 69.3C518.3 70.7 545.7 78.3 573 79.2C600.3 80 627.7 74 654.8 73C682 72 709 76 736.2 75.5C763.3 75 790.7 70 818 67.7C845.3 65.3 872.7 65.7 886.3 65.8L900 66L900 101L886.3 101C872.7 101 845.3 101 818 101C790.7 101 763.3 101 736.2 101C709 101 682 101 654.8 101C627.7 101 600.3 101 573 101C545.7 101 518.3 101 491 101C463.7 101 436.3 101 409 101C381.7 101 354.3 101 327 101C299.7 101 272.3 101 245.2 101C218 101 191 101 163.8 101C136.7 101 109.3 101 82 101C54.7 101 27.3 101 13.7 101L0 101Z" fill="#021536"></path><path d="M0 94L13.7 91.3C27.3 88.7 54.7 83.3 82 80.5C109.3 77.7 136.7 77.3 163.8 77.3C191 77.3 218 77.7 245.2 77.3C272.3 77 299.7 76 327 76.2C354.3 76.3 381.7 77.7 409 80.2C436.3 82.7 463.7 86.3 491 86.2C518.3 86 545.7 82 573 82.5C600.3 83 627.7 88 654.8 87.5C682 87 709 81 736.2 78.3C763.3 75.7 790.7 76.3 818 76.5C845.3 76.7 872.7 76.3 886.3 76.2L900 76L900 101L886.3 101C872.7 101 845.3 101 818 101C790.7 101 763.3 101 736.2 101C709 101 682 101 654.8 101C627.7 101 600.3 101 573 101C545.7 101 518.3 101 491 101C463.7 101 436.3 101 409 101C381.7 101 354.3 101 327 101C299.7 101 272.3 101 245.2 101C218 101 191 101 163.8 101C136.7 101 109.3 101 82 101C54.7 101 27.3 101 13.7 101L0 101Z" fill="#000727"></path></svg>