<svg id="visual" viewBox="0 0 900 100" width="900" height="100" xmlns="http://www.w3.org/2000/svg" xmlns:xlink="http://www.w3.org/1999/xlink" version="1.1"><rect x="0" y="0" width="900" height="100" fill="#001122"></rect><path d="M0 38L13.7 40.2C27.3 42.3 54.7 46.7 82 44.5C109.3 42.3 136.7 33.7 163.8 29.3C191 25 218 25 245.2 30.7C272.3 36.3 299.7 47.7 327 46.5C354.3 45.3 381.7 31.7 409 30.3C436.3 29 463.7 40 491 38.7C518.3 37.3 545.7 23.7 573 20.8C600.3 18 627.7 26 654.8 26.7C682 27.3 709 20.7 736.2 20C763.3 19.3 790.7 24.7 818 29.2C845.3 33.7 872.7 37.3 886.3 39.2L900 41L900 101L886.3 101C872.7 101 845.3 101 818 101C790.7 101 763.3 101 736.2 101C709 101 682 101 654.8 101C627.7 101 600.3 101 573 101C545.7 101 518.3 101 491 101C463.7 101 436.3 101 409 101C381.7 101 354.3 101 327 101C299.7 101 272.3 101 245.2 101C218 101 191 101 163.8 101C136.7 101 109.3 101 82 101C54.7 101 27.3 101 13.7 101L0 101Z" fill="#003d7a"></path><path d="M0 24L13.7 26.5C27.3 29 54.7 34 82 39.3C109.3 44.7 136.7 50.3 163.8 50.5C191 50.7 218 45.3 245.2 44C272.3 42.7 299.7 45.3 327 45.5C354.3 45.7 381.7 43.3 409 40.2C436.3 37 463.7 33 491 31.5C518.3 30 545.7 31 573 34.5C600.3 38 627.7 44 654.8 44.3C682 44.7 709 39.3 736.2 36.2C763.3 33 790.7 32 818 32.8C845.3 33.7 872.7 36.3 886.3 37.7L900 39L900 101L886.3 101C872.7 101 845.3 101 818 101C790.7 101 763.3 101 736.2 101C709 101 682 101 654.8 101C627.7 101 600.3 101 573 101C545.7 101 518.3 101 491 101C463.7 101 436.3 101 409 101C381.7 101 354.3 101 327 101C299.7 101 272.3 101 245.2 101C218 101 191 101 163.8 101C136.7 101 109.3 101 82 101C54.7 101 27.3 101 13.7 101L0 101Z" fill="#033268"></path><path d="M0 47L13.7 46.5C27.3 46 54.7 45 82 46.5C109.3 48 136.7 52 163.8 56.8C191 61.7 218 67.3 245.2 68.2C272.3 69 299.7 65 327 63.7C354.3 62.3 381.7 63.7 409 64.2C436.3 64.7 463.7 64.3 491 61.7C518.3 59 545.7 54 573 50.2C600.3 46.3 627.7 43.7 654.8 47.3C682 51 709 61 736.2 63.3C763.3 65.7 790.7 60.3 818 57.2C845.3 54 872.7 53 886.3 52.5L900 52L900 101L886.3 101C872.7 101 845.3 101 818 101C790.7 101 763.3 101 736.2 101C709 101 682 101 654.8 101C627.7 101 600.3 101 573 101C545.7 101 518.3 101 491 101C463.7 101 436.3 101 409 101C381.7 101 354.3 101 327 101C299.7 101 272.3 101 245.2 101C218 101 191 101 163.8 101C136.7 101 109.3 101 82 101C54.7 101 27.3 101 13.7 101L0 101Z" fill="#032857"></path><path d="M0 68L13.7 67.5C27.3 67 54.7 66 82 63.8C109.3 61.7 136.7 58.3 163.8 57.7C191 57 218 59 245.2 61.5C272.3 64 299.7 67 327 66.3C354.3 65.7 381.7 61.3 409 58.2C436.3 55 463.7 53 491 53.5C518.3 54 545.7 57 573 58.7C600.3 60.3 627.7 60.7 654.8 63.8C682 67 709 73 736.2 72.8C763.3 72.7 790.7 66.3 818 61.7C845.3 57 872.7 54 886.3 52.5L900 51L900 101L886.3 101C872.7 101 845.3 101 818 101C790.7 101 763.3 101 736.2 101C709 101 682 101 654.8 101C627.7 101 600.3 101 573 101C545.7 101 518.3 101 491 101C463.7 101 436.3 101 409 101C381.7 101 354.3 101 327 101C299.7 101 272.3 101 245.2 101C218 101 191 101 163.8 101C136.7 101 109.3 101 82 101C54.7 101 27.3 101 13.7 101L0 101Z" fill="#031e46"></path><path d="M0 87L13.7 84.7C27.3 82.3 54.7 77.7 82 77.7C109.3 77.7 136.7 82.3 163.8 82.7C191 83 218 79 245.2 74.8C272.3 70.7 299.7 66.3 327 64.2C354.3 62 381.7 62 409 63.8C436.3 65.7 463.7 69.3 491 71.7C518.3 74 545.7 75 573 73.2C600.3 71.3 627.7 66.7 654.8 67.3C682 68 709 74 736.2 74.3C763.3 74.7 790.7 69.3 818 69.8C845.3 70.3 872.7 76.7 886.3 79.8L900 83L900 101L886.3 101C872.7 101 845.3 101 818 101C790.7 101 763.3 101 736.2 101C709 101 682 101 654.8 101C627.7 101 600.3 101 573 101C545.7 101 518.3 101 491 101C463.7 101 436.3 101 409 101C381.7 101 354.3 101 327 101C299.7 101 272.3 101 245.2 101C218 101 191 101 163.8 101C136.7 101 109.3 101 82 101C54.7 101 27.3 101 13.7 101L0 101Z" fill="#021536"></path><path d="M0 84L13.7 84.5C27.3 85 54.7 86 82 86.8C109.3 87.7 136.7 88.3 163.8 88.5C191 88.7 218 88.3 245.2 87.5C272.3 86.7 299.7 85.3 327 86.2C354.3 87 381.7 90 409 89.2C436.3 88.3 463.7 83.7 491 81.3C518.3 79 545.7 79 573 80.5C600.3 82 627.7 85 654.8 84.8C682 84.7 709 81.3 736.2 80C763.3 78.7 790.7 79.3 818 80.8C845.3 82.3 872.7 84.7 886.3 85.8L900 87L900 101L886.3 101C872.7 101 845.3 101 818 101C790.7 101 763.3 101 736.2 101C709 101 682 101 654.8 101C627.7 101 600.3 101 573 101C545.7 101 518.3 101 491 101C463.7 101 436.3 101 409 101C381.7 101 354.3 101 327 101C299.7 101 272.3 101 245.2 101C218 101 191 101 163.8 101C136.7 101 109.3 101 82 101C54.7 101 27.3 101 13.7 101L0 101Z" fill="#000727"></path></svg>